<svg width="15" height="13" viewBox="0 0 15 13" fill="none" xmlns="http://www.w3.org/2000/svg">
<path d="M12.75 0.5H2.25C1.65326 0.5 1.08097 0.737053 0.65901 1.15901C0.237053 1.58097 0 2.15326 0 2.75V10.25C0 10.8467 0.237053 11.419 0.65901 11.841C1.08097 12.2629 1.65326 12.5 2.25 12.5H12.75C13.3467 12.5 13.919 12.2629 14.341 11.841C14.7629 11.419 15 10.8467 15 10.25V2.75C15 2.15326 14.7629 1.58097 14.341 1.15901C13.919 0.737053 13.3467 0.5 12.75 0.5ZM12.2475 2L7.5 5.5625L2.7525 2H12.2475ZM12.75 11H2.25C2.05109 11 1.86032 10.921 1.71967 10.7803C1.57902 10.6397 1.5 10.4489 1.5 10.25V2.9375L7.05 7.1C7.17982 7.19737 7.33772 7.25 7.5 7.25C7.66228 7.25 7.82018 7.19737 7.95 7.1L13.5 2.9375V10.25C13.5 10.4489 13.421 10.6397 13.2803 10.7803C13.1397 10.921 12.9489 11 12.75 11Z" fill="#48335A"/>
</svg>
