<svg width="20" height="15" viewBox="0 0 20 15" fill="none" xmlns="http://www.w3.org/2000/svg">
<path d="M10.4674 1.5C5.06138 1.5 2.43853 6.37114 1.9731 7.33543C1.94791 7.38663 1.93481 7.44294 1.93481 7.5C1.93481 7.55706 1.94791 7.61337 1.9731 7.66457C2.43767 8.62886 5.06053 13.5 10.4674 13.5C15.8742 13.5 18.4962 8.62886 18.9617 7.66457C18.9869 7.61337 19 7.55706 19 7.5C19 7.44294 18.9869 7.38663 18.9617 7.33543C18.4971 6.37114 15.8742 1.5 10.4674 1.5Z" stroke="var(--secondary)" strokeWidth="2" strokeLinecap="round" strokeLinejoin="round"/>
<path d="M10.4673 10.0716C11.8875 10.0716 13.0387 8.9203 13.0387 7.50014C13.0387 6.07998 11.8875 4.92871 10.4673 4.92871C9.04714 4.92871 7.89587 6.07998 7.89587 7.50014C7.89587 8.9203 9.04714 10.0716 10.4673 10.0716Z" stroke="var(--secondary)" strokeWidth="2" strokeLinecap="round" strokeLinejoin="round"/>
</svg>
