<svg width="12" height="15" viewBox="0 0 12 15" fill="none" xmlns="http://www.w3.org/2000/svg">
<path d="M5.71429 11.4286C5.33541 11.4286 4.97204 11.2781 4.70413 11.0102C4.43622 10.7422 4.28571 10.3789 4.28571 10C4.28571 9.20714 4.92143 8.57143 5.71429 8.57143C6.09317 8.57143 6.45653 8.72194 6.72444 8.98985C6.99235 9.25776 7.14286 9.62112 7.14286 10C7.14286 10.3789 6.99235 10.7422 6.72444 11.0102C6.45653 11.2781 6.09317 11.4286 5.71429 11.4286ZM10 13.5714V6.42857H1.42857V13.5714H10ZM10 5C10.3789 5 10.7422 5.15051 11.0102 5.41842C11.2781 5.68633 11.4286 6.04969 11.4286 6.42857V13.5714C11.4286 13.9503 11.2781 14.3137 11.0102 14.5816C10.7422 14.8495 10.3789 15 10 15H1.42857C1.04969 15 0.686328 14.8495 0.418419 14.5816C0.15051 14.3137 0 13.9503 0 13.5714V6.42857C0 5.63571 0.635714 5 1.42857 5H2.14286V3.57143C2.14286 2.62423 2.51913 1.71582 3.1889 1.04605C3.85868 0.376274 4.76708 0 5.71429 0C6.18329 0 6.64771 0.0923778 7.08101 0.271859C7.51432 0.45134 7.90803 0.714409 8.23967 1.04605C8.57131 1.37769 8.83438 1.7714 9.01386 2.2047C9.19334 2.63801 9.28571 3.10242 9.28571 3.57143V5H10ZM5.71429 1.42857C5.14596 1.42857 4.60092 1.65434 4.19906 2.0562C3.79719 2.45806 3.57143 3.00311 3.57143 3.57143V5H7.85714V3.57143C7.85714 3.00311 7.63138 2.45806 7.22952 2.0562C6.82765 1.65434 6.28261 1.42857 5.71429 1.42857Z" fill="black"/>
</svg>
