<svg width="20" height="21" viewBox="0 0 20 21" fill="none" xmlns="http://www.w3.org/2000/svg">
<path d="M8.74 0.946747C9.09631 0.657733 9.54118 0.5 10 0.5C10.4588 0.5 10.9037 0.657733 11.26 0.946747L18.888 7.12588C19.2349 7.40672 19.5147 7.76141 19.707 8.16409C19.8994 8.56677 19.9995 9.00729 20 9.45355V18.5003C20 19.0306 19.7893 19.5393 19.4142 19.9143C19.0391 20.2893 18.5304 20.5 18 20.5H15C14.4696 20.5 13.9609 20.2893 13.5858 19.9143C13.2107 19.5393 13 19.0306 13 18.5003V13.501C13 13.2358 12.8946 12.9815 12.7071 12.794C12.5196 12.6065 12.2652 12.5011 12 12.5011H8C7.73478 12.5011 7.48043 12.6065 7.29289 12.794C7.10536 12.9815 7 13.2358 7 13.501V18.5003C7 19.0306 6.78929 19.5393 6.41421 19.9143C6.03914 20.2893 5.53043 20.5 5 20.5H2C1.46957 20.5 0.960859 20.2893 0.585786 19.9143C0.210714 19.5393 5.87179e-08 19.0306 5.87179e-08 18.5003V9.45555C-8.83736e-05 9.00862 0.0997121 8.56731 0.292106 8.1639C0.484499 7.76048 0.764623 7.40515 1.112 7.12388L8.74 0.946747Z" fill="#332441"/>
</svg>
