<svg width="20" height="20" viewBox="0 0 20 20" fill="none" xmlns="http://www.w3.org/2000/svg">
<path d="M8.73877 0.446747C9.09504 0.157733 9.53984 0 9.9986 0C10.4573 0 10.9022 0.157733 11.2584 0.446747L18.8853 6.62588C19.2322 6.90672 19.5119 7.26141 19.7043 7.66409C19.8966 8.06677 19.9967 8.50729 19.9972 8.95355V18.0003C19.9972 18.5306 19.7865 19.0393 19.4115 19.4143C19.0365 19.7893 18.5278 20 17.9975 20H13.998C13.4677 20 12.959 19.7893 12.584 19.4143C12.209 19.0393 11.9983 18.5306 11.9983 18.0003V12.0011H7.99888V18.0003C7.99888 18.5306 7.78819 19.0393 7.41317 19.4143C7.03815 19.7893 6.52952 20 5.99916 20H1.99972C1.46936 20 0.960724 19.7893 0.585704 19.4143C0.210684 19.0393 5.87095e-08 18.5306 5.87095e-08 18.0003V8.95555C-8.83612e-05 8.50862 0.0996981 8.06731 0.292065 7.6639C0.484431 7.26048 0.764516 6.90515 1.11184 6.62388L8.73877 0.446747ZM17.6275 8.17766L9.9986 2.00253L2.36967 8.17766C2.25393 8.27155 2.16064 8.39013 2.09663 8.52473C2.03262 8.65932 1.99951 8.80652 1.99972 8.95555V18.0003H5.99916V12.0011C5.99916 11.4708 6.20984 10.9621 6.58486 10.5871C6.95988 10.2121 7.46852 10.0014 7.99888 10.0014H11.9983C12.5287 10.0014 13.0373 10.2121 13.4123 10.5871C13.7873 10.9621 13.998 11.4708 13.998 12.0011V18.0003H17.9975V8.95555C17.9977 8.80652 17.9646 8.65932 17.9006 8.52473C17.8366 8.39013 17.7433 8.27155 17.6275 8.17766Z" fill="#387ADF"/>
</svg>
