<svg width="24" height="24" viewBox="0 0 24 24" fill="none" xmlns="http://www.w3.org/2000/svg">
<path d="M18.4639 2.11374C18.3024 2.0288 18.1208 1.98977 17.9386 2.00087C17.7565 2.01198 17.5809 2.07281 17.4309 2.17674L4.43093 11.1767C4.29849 11.2692 4.19033 11.3922 4.11564 11.5354C4.04095 11.6786 4.00195 11.8377 4.00195 11.9992C4.00195 12.1607 4.04095 12.3199 4.11564 12.4631C4.19033 12.6063 4.29849 12.7293 4.43093 12.8217L17.4309 21.8217C17.581 21.9255 17.7565 21.9863 17.9386 21.9975C18.1207 22.0087 18.3024 21.9699 18.464 21.8852C18.6256 21.8005 18.761 21.6733 18.8554 21.5172C18.9499 21.3611 18.9999 21.1822 18.9999 20.9997V2.99974C19 2.8172 18.95 2.63814 18.8555 2.48196C18.7611 2.32577 18.6256 2.19843 18.4639 2.11374ZM16.9999 19.0907L6.75693 11.9997L16.9999 4.90874V19.0907Z" fill="#FAFAFA"/>
</svg>
